<svg width="15" height="16" viewBox="0 0 15 16" fill="none" xmlns="http://www.w3.org/2000/svg">
<path fill-rule="evenodd" clip-rule="evenodd" d="M14.6374 0.862273C14.8185 1.04336 14.8799 1.31219 14.7953 1.55391L10.1286 14.8872C10.0383 15.1452 9.79965 15.322 9.52653 15.3331C9.25341 15.3443 9.00116 15.1876 8.89014 14.9378L6.32762 9.17208L0.561927 6.60955C0.31214 6.49854 0.155431 6.24629 0.166573 5.97317C0.177716 5.70005 0.354452 5.46141 0.612452 5.37111L13.9458 0.704439C14.1875 0.619835 14.4563 0.681181 14.6374 0.862273ZM7.62785 8.81466L9.42562 12.8596L12.5717 3.8708L7.62785 8.81466ZM11.6289 2.92799L2.64007 6.07408L6.68504 7.87185L11.6289 2.92799Z" fill="white"/>
</svg>
